<svg width="283" height="34" viewBox="0 0 283 34" fill="none" xmlns="http://www.w3.org/2000/svg">
    <style>
        .text {
        fill: #FFFFFF;
        }

        @media (prefers-color-scheme: dark) {
        .text { fill: #FFFFFF; }
        }

        @media (prefers-color-scheme: light) {
        .text { fill: #181818; }
        }
    </style>
    <path d="M49.3217 16.6924V16.5539C46.7936 16.1383 45.1659 13.5409 45.3044 10.2509L45.5122 6.5107C45.6161 4.29429 44.404 3.04755 42.1183 3.04755H39.6941V-3.05176e-05H42.2569C46.6551 -3.05176e-05 49.0793 2.45881 48.8369 6.68387L48.6637 10.3202C48.5252 13.2292 50.1182 15.0647 52.8541 15.0647H54.5164V18.1815H52.8541C50.1182 18.1815 48.5252 20.017 48.6637 22.9261L48.8369 26.5624C49.0793 30.7874 46.6551 33.2463 42.2569 33.2463H39.4863V30.1987H42.1183C44.404 30.1987 45.6161 28.952 45.5122 26.7355L45.3044 22.9953C45.1659 19.7053 46.7936 17.108 49.3217 16.6924Z"
          fill="#7F57F5"/>
    <path d="M17.8223 16.9175C17.8223 14.1816 19.8309 12.2076 22.5668 12.2076C24.8178 12.2076 26.3763 13.489 27.7269 14.9782C29.0775 13.489 30.6359 12.2076 32.887 12.2076C35.6229 12.2076 37.6315 14.1816 37.6315 16.9175C37.6315 19.6534 35.6229 21.6274 32.887 21.6274C30.6359 21.6274 29.0775 20.3461 27.7269 18.8569C26.3763 20.3461 24.8178 21.6274 22.5668 21.6274C19.8309 21.6274 17.8223 19.6534 17.8223 16.9175ZM22.8092 19.0647C24.0559 19.0647 25.0603 18.1296 26.1338 16.9175C25.0603 15.7054 24.0559 14.7704 22.8092 14.7704C21.5625 14.7704 20.6967 15.6708 20.6967 16.9175C20.6967 18.1643 21.5625 19.0647 22.8092 19.0647ZM29.3199 16.9175C30.3935 18.1296 31.3978 19.0647 32.6446 19.0647C33.8913 19.0647 34.7571 18.1643 34.7571 16.9175C34.7571 15.6708 33.8913 14.7704 32.6446 14.7704C31.3978 14.7704 30.3935 15.7054 29.3199 16.9175Z"
          class="text"/>
    <path d="M6.13028 16.5539V16.6924C8.65839 17.108 10.2861 19.7053 10.1475 22.9953L9.93976 26.7355C9.83586 28.952 11.048 30.1987 13.3337 30.1987H15.9657V33.2463H13.1951C8.79691 33.2463 6.37271 30.7874 6.61513 26.5624L6.78828 22.9261C6.92681 20.017 5.33376 18.1815 2.59786 18.1815H0.935547V15.0647H2.59786C5.33376 15.0647 6.92681 13.2292 6.78828 10.3202L6.61513 6.68387C6.37271 2.45881 8.79691 -3.05176e-05 13.1951 -3.05176e-05H15.7579V3.04755H13.3337C11.048 3.04755 9.83586 4.29429 9.93976 6.5107L10.1475 10.2509C10.2861 13.5409 8.65839 16.1383 6.13028 16.5539Z"
          fill="#7F57F5"/>
    <path d="M270.08 21.7882H273.197C273.375 22.9459 274.8 23.8067 276.522 23.8067C278.214 23.8067 279.342 22.9459 279.342 21.5804C279.342 20.4524 278.57 19.8884 276.729 19.6509L275.928 19.5619C272.306 19.1166 270.614 17.6621 270.614 15.0202C270.614 11.933 272.93 9.79578 276.373 9.79578C279.668 9.79578 282.221 11.7549 282.369 14.4265H279.371C279.223 13.2688 278.006 12.497 276.433 12.497C274.8 12.497 273.761 13.3282 273.761 14.6343C273.761 15.7326 274.473 16.2966 276.165 16.5341L276.937 16.6232C280.737 17.0981 282.548 18.5823 282.548 21.2242C282.548 24.341 279.995 26.5377 276.314 26.5377C272.811 26.5377 270.14 24.5192 270.08 21.7882Z"
          class="text"/>
    <path d="M253.083 26.1221V4.15578H256.289V12.5861H256.407C257.357 10.7754 258.841 9.79578 260.86 9.79578C264.6 9.79578 267.301 13.2688 267.301 18.1074C267.301 22.9459 264.63 26.4189 260.86 26.4189C258.752 26.4189 257.179 25.3206 256.259 23.3318H256.14V26.1221H253.083ZM260.177 23.4802C262.493 23.4802 264.096 21.2836 264.096 18.1074C264.096 14.9312 262.493 12.7345 260.177 12.7345C257.862 12.7345 256.229 14.9312 256.229 18.1074C256.229 21.2836 257.862 23.4802 260.177 23.4802Z"
          class="text"/>
    <path d="M245.792 14.9015C245.792 13.4173 244.723 12.4674 242.913 12.4674C241.28 12.4674 240.063 13.2688 239.944 14.4265H236.798C236.857 11.7253 239.44 9.79578 242.972 9.79578C246.564 9.79578 248.998 11.844 248.998 14.8718V20.393C248.998 22.6787 249.176 24.5785 249.592 26.1221H246.504C246.297 25.4987 246.148 24.7566 246.029 23.8958H245.881C244.991 25.4987 243.447 26.4189 241.399 26.4189C238.371 26.4189 236.263 24.4004 236.263 21.521C236.263 18.5526 238.49 16.92 243.15 16.5044L244.278 16.4154C245.347 16.2966 245.792 15.8514 245.792 14.9015ZM242.052 23.8661C244.13 23.8661 245.792 22.1741 245.792 20.0072V18.1667C245.436 18.3745 245.02 18.4933 244.545 18.5526L243.417 18.701C240.657 19.0276 239.469 19.8587 239.469 21.4617C239.469 22.9162 240.479 23.8661 242.052 23.8661Z"
          class="text"/>
    <path d="M221.077 26.1221V5.34315H224.401V23.1834H233.247V26.1221H221.077Z" class="text"/>
    <path d="M190.763 18.9088C191.03 21.8179 192.544 23.5989 194.889 23.5989C196.313 23.5989 197.471 22.9162 197.887 21.7882H200.915C200.38 24.5785 197.946 26.4189 194.859 26.4189C190.614 26.4189 187.586 22.9162 187.586 18.0183C187.586 13.2095 190.466 9.79578 194.532 9.79578C198.48 9.79578 201.211 13.0314 201.211 17.7215V18.9088H190.763ZM194.532 12.5267C192.662 12.5267 191.297 14.0109 190.852 16.4154H198.035C197.857 14.0703 196.462 12.5267 194.532 12.5267Z"
          class="text"/>
    <path d="M172.251 26.1221V23.213H176.823V7.06484H172.4V4.15578H180.028V23.213H184.6V26.1221H172.251Z"
          class="text"/>
    <path d="M162.111 26.4189C157.985 26.4189 154.957 22.9162 154.957 18.1074C154.957 13.2985 157.985 9.79578 162.111 9.79578C166.237 9.79578 169.265 13.2985 169.265 18.1074C169.265 22.9162 166.237 26.4189 162.111 26.4189ZM162.111 23.4802C164.426 23.4802 166.029 21.2836 166.029 18.1074C166.029 14.9312 164.426 12.7345 162.111 12.7345C159.795 12.7345 158.192 14.9312 158.192 18.1074C158.192 21.2836 159.795 23.4802 162.111 23.4802Z"
          class="text"/>
    <path d="M139.473 26.1221V4.1261H142.679V12.1705H142.798C143.659 10.6566 145.084 9.79578 146.894 9.79578C149.803 9.79578 151.733 11.9627 151.733 15.2874V26.1221H148.527V15.5545C148.527 13.6547 147.547 12.4674 146.004 12.4674C144.074 12.4674 142.679 14.2781 142.679 16.8013V26.1221H139.473Z"
          class="text"/>
    <path d="M122.565 10.0926H125.622V12.8236H125.771C126.691 10.8644 128.264 9.79578 130.342 9.79578C134.112 9.79578 136.784 13.2688 136.784 18.1074C136.784 22.9459 134.082 26.4189 130.342 26.4189C128.353 26.4189 126.869 25.469 125.919 23.688H125.771V32.0589H122.565V10.0926ZM129.659 12.7345C127.344 12.7345 125.711 14.9312 125.711 18.1074C125.711 21.2836 127.344 23.4802 129.659 23.4802C131.975 23.4802 133.578 21.2836 133.578 18.1074C133.578 14.9312 131.975 12.7345 129.659 12.7345Z"
          class="text"/>
    <path d="M112.81 26.4189C108.684 26.4189 105.657 22.9162 105.657 18.1074C105.657 13.2985 108.684 9.79578 112.81 9.79578C116.937 9.79578 119.964 13.2985 119.964 18.1074C119.964 22.9162 116.937 26.4189 112.81 26.4189ZM112.81 23.4802C115.126 23.4802 116.729 21.2836 116.729 18.1074C116.729 14.9312 115.126 12.7345 112.81 12.7345C110.495 12.7345 108.892 14.9312 108.892 18.1074C108.892 21.2836 110.495 23.4802 112.81 23.4802Z"
          class="text"/>
    <path d="M96.1395 26.4189C92.0134 26.4189 88.9856 22.9162 88.9856 18.1074C88.9856 13.2985 92.0134 9.79578 96.1395 9.79578C100.266 9.79578 103.293 13.2985 103.293 18.1074C103.293 22.9162 100.266 26.4189 96.1395 26.4189ZM96.1395 23.4802C98.4549 23.4802 100.058 21.2836 100.058 18.1074C100.058 14.9312 98.4549 12.7345 96.1395 12.7345C93.8241 12.7345 92.2212 14.9312 92.2212 18.1074C92.2212 21.2836 93.8241 23.4802 96.1395 23.4802Z"
          class="text"/>
    <path d="M74.2441 26.1221V5.34315H77.5688V23.1834H86.4147V26.1221H74.2441Z" class="text"/>
</svg>
